<?xml version="1.0" encoding="UTF-8" standalone="no"?>
<!--Generator: Xara Designer (www.xara.com), SVG filter version: 6.3.0.31-->

<svg
   fill="none"
   fill-rule="evenodd"
   stroke="#000000"
   stroke-width="0.501"
   stroke-linejoin="bevel"
   stroke-miterlimit="10"
   font-family="'Times New Roman'"
   font-size="16px"
   style="font-variant-ligatures:none"
   version="1.1"
   overflow="visible"
   width="78.598pt"
   height="120.221pt"
   viewBox="408.442 -481.34 78.598 120.221"
   id="svg12"
   xmlns="http://www.w3.org/2000/svg"
   xmlns:svg="http://www.w3.org/2000/svg">
  <defs
     id="defs1" />
  <g
     id="g12">
    <path
       d="m 410.66405,-363.64292 c -0.05,-0.175 -0.076,-0.359 -0.076,-0.551 v -7.993 c 0,-1.103 0.896,-2 2,-2 1.103,0 2,0.897 2,2 v 6.107 h 8.774 c 1.103,0 2,0.897 2,2 0,1.104 -0.897,2 -2,2 h -10.745 c -0.954,0 -1.753,-0.669 -1.953,-1.563 z"
       stroke-width="0.5"
       fill-rule="evenodd"
       fill="#000000"
       stroke="none"
       marker-start="none"
       marker-end="none"
       fill-opacity="0.490196"
       id="path1"
       style="fill:#666666" />
    <path
       d="m 427.02905,-365.51292 v -7.339 h -9.069 c -1.104,0 -2,-0.896 -2,-2 0,-1.103 0.896,-2 2,-2 h 11.085 c 1.103,0 2,0.897 2,2 0,0.157 -0.016,0.706 -0.016,0.835 v 7.937 h 8.833 c 1.103,0 2,0.897 2,2 0,1.104 -0.897,2 -2,2 h -9.838 c -1.12153,0 -2.995,-2.45948 -2.995,-3.433 z"
       stroke-width="0.5"
       fill-rule="evenodd"
       fill="#000000"
       stroke="none"
       marker-start="none"
       marker-end="none"
       fill-opacity="0.490196"
       id="path2"
       style="fill:#666666" />
    <path
       d="m 412.68905,-387.32592 7.37,-4.536 c 0.233,-0.143 0.239,-0.4 0.008,-0.541 l -7.937,-4.834 c -2.131,-1.177 -1.511,-5.111 1.36,-5.111 h 26.842 c 1.103,0 2,0.897 2,2 0,1.104 -0.897,2 -2,2 h -22.335 l 4.151,2.528 c 1.227,1.126 1.428,1.991 1.474,3.588 0.052,1.798 -0.247,2.924 -1.466,3.777 l -3.629,2.233 h 21.806 c 1.103,0 2,0.897 2,2 0,1.104 -0.897,2 -2,2 h -26.842 c -3.438,0 -3.438,-3.968 -0.802,-5.104 z"
       stroke-width="0.5"
       fill-rule="evenodd"
       fill="#000000"
       stroke="none"
       marker-start="none"
       marker-end="none"
       fill-opacity="0.490196"
       id="path3"
       style="fill:#666666" />
    <path
       id="path4"
       d="m 412.58751,-424.77359 c -1.104,0 -1.99951,0.89797 -1.99951,2.00097 v 9.63721 c 0,1.104 0.89551,2.00098 1.99951,2.00098 1.103,0 2.00097,-0.89698 2.00097,-2.00098 v -7.62158 h 12.44385 l 0.0132,8.20752 c 0,0.366 0.099,0.70988 0.27099,1.00488 0.294,0.738 1.01489,1.25977 1.85889,1.25977 h 15.04687 c 0.61527,0 1.16656,-0.2796 1.53369,-0.71778 0.35863,-0.36151 0.58008,-0.85874 0.58008,-1.40771 v -10.2378 c 0,-1.103 -0.89651,-1.99951 -1.99951,-1.99951 -1.104,0 -2.00098,0.89651 -2.00098,1.99951 v 8.3628 h -11.29394 l -0.0147,-8.20606 c 0.012,-0.087 0.0176,-0.17513 0.0176,-0.26513 0,-0.564 -0.23443,-1.07507 -0.56543,-1.39307 l -0.0454,-0.0439 c -0.077,-0.074 -0.15909,-0.14168 -0.24609,-0.20068 -0.041,-0.035 -0.0828,-0.064 -0.13184,-0.085 -0.04,-0.026 -0.0834,-0.0489 -0.12744,-0.0688 -0.111,-0.064 -0.19658,-0.0982 -0.28858,-0.11719 -0.257,-0.082 -0.43423,-0.10693 -0.61523,-0.10693 -0.083,10e-4 -0.16316,0.006 -0.24316,0.0147 H 412.838 c -0.082,-0.01 -0.16649,-0.0161 -0.25049,-0.0161 z"
       style="fill:#666666;stroke:none" />
    <circle
       transform="matrix(-0.70694633,-0.7072672,-0.7072672,0.70694633,0,0)"
       stroke-opacity="0.509804"
       stroke="none"
       stroke-linejoin="miter"
       stroke-width="2"
       fill="#000000"
       fill-opacity="0.509804"
       id="ellipse5"
       cx="-7.1876788"
       cy="-617.75061"
       r="3.2060001"
       style="fill:#666666" />
    <path
       d="m 410.61905,-440.34792 v -9.638 c 0,-1.103 0.896,-2 2,-2 1.103,0 2,0.897 2,2 v 7.622 h 12.444 l 0.013,-8.207 c 0,-0.365 0.098,-0.707 0.27,-1.001 0.294,-0.74 1.016,-1.264 1.86,-1.264 h 15.047 c 0.615,0 1.166,0.28 1.533,0.718 0.007,0.008 0.013,0.016 0.02,0.025 0.348,0.357 0.561,0.845 0.561,1.382 v 10.238 c 0,1.104 -0.897,2 -2,2 -1.104,0 -2,-0.896 -2,-2 v -8.363 h -11.295 l -0.013,8.218 c 0.011,0.084 0.017,0.169 0.017,0.254 0,0.552 -0.225,1.051 -0.598,1.424 0.005,-0.004 0.01,-0.009 0.015,-0.014 -0.005,0.006 -0.01,0.011 -0.016,0.015 l 10e-4,-10e-4 c -0.078,0.078 -0.161,0.147 -0.249,0.208 -0.034,0.031 -0.072,0.057 -0.154,0.099 -0.032,0.02 -0.066,0.038 -0.101,0.054 -0.271,0.151 -0.586,0.232 -0.918,0.231 -0.085,0 -0.168,-0.005 -0.25,-0.016 h -15.928 c -0.085,0.011 -0.172,0.016 -0.259,0.016 -1.104,0 -2,-0.896 -2,-2 z"
       stroke-width="0.5"
       fill-rule="evenodd"
       fill="#000000"
       stroke="none"
       marker-start="none"
       marker-end="none"
       fill-opacity="0.490196"
       id="path6"
       style="fill:#666666" />
    <path
       d="m 482.59005,-381.83392 -0.208,-0.104 h -22.371 c -1.104,0 -2,-0.896 -2,-2 0,-1.103 0.896,-2 2,-2 h 10.136 v -7.055 h -9.746 c -1.104,0 -2,-0.896 -2,-2 0,-1.103 0.896,-2 2,-2 h 13.539 c 1.103,0 2,0.897 2,2 0,1.035 -0.787,1.886 -1.793,1.99 v 7.065 h 8.511 c 0.126,0 0.249,0.012 0.369,0.035 0.266,0.014 0.533,0.082 0.787,0.208 l 0.567,0.284 c 0.987,0.495 1.387,1.697 0.893,2.684 -0.495,0.987 -1.697,1.387 -2.684,0.893 z"
       stroke-width="0.5"
       fill-rule="evenodd"
       fill="#000000"
       stroke="none"
       marker-start="none"
       marker-end="none"
       fill-opacity="0.482353"
       id="path7"
       style="fill:#666666" />
    <path
       d="m 454.62705,-402.22792 c -0.573,-0.353 -0.955,-0.987 -0.953,-1.71 l 0.016,-7.328 c 0.002,-1.104 0.9,-1.998 2.004,-1.995 1.104,0.002 1.998,0.9 1.995,2.004 l -0.012,5.492 h 9.032 c 1.103,0 2,0.897 2,2 0,1.104 -0.897,2 -2,2 h -10.801 c -0.487,0 -0.934,-0.174 -1.281,-0.463 z"
       stroke-width="0.5"
       fill-rule="evenodd"
       fill="#000000"
       stroke="none"
       marker-start="none"
       marker-end="none"
       fill-opacity="0.490196"
       id="path8"
       style="fill:#666666" />
    <path
       d="m 485.17105,-405.02992 0.012,-7.523 h -11.072 l -0.012,6.521 c -0.002,1.104 -0.899,1.999 -2.003,1.996 -1.104,-0.002 -1.999,-0.899 -1.996,-2.003 l 0.012,-6.514 h -9.363 c -1.104,0 -2,-0.896 -2,-2 0,-1.103 0.896,-2 2,-2 h 11.056 c 5.07495,-0.007 10.161,0 15.239,0 0.645,0 1.22,0.308 1.586,0.784 0.345,0.36 0.556,0.849 0.556,1.386 l -0.016,9.36 c -10e-4,1.104 -0.899,1.998 -2.003,1.996 -1.104,-10e-4 -1.998,-0.899 -1.996,-2.003 z"
       stroke-width="0.5"
       fill-rule="evenodd"
       fill="#000000"
       stroke="none"
       marker-start="none"
       marker-end="none"
       fill-opacity="0.490196"
       id="path9"
       style="fill:#666666" />
    <path
       d="m 475.38705,-425.55792 -17.291,-9.921 c -0.957,-0.549 -1.289,-1.772 -0.739,-2.73 0.549,-0.957 1.772,-1.289 2.73,-0.739 l 17.291,9.921 c 0.957,0.549 1.289,1.772 0.739,2.73 -0.549,0.957 -1.772,1.289 -2.73,0.739 z"
       stroke-width="0.5"
       stroke="none"
       fill="#000000"
       fill-rule="evenodd"
       marker-start="none"
       marker-end="none"
       fill-opacity="0.490196"
       id="path10"
       style="fill:#666666" />
    <path
       d="m 477.72805,-445.68692 -13.82,-0.015 c -0.645,0 -1.25,-0.312 -1.625,-0.837 l -1.417,-1.985 c -0.686,-0.961 -0.394,-2.305 0.628,-2.895 l 7.115,-4.106 c 0.251,-0.286 0.328,-0.464 0.352,-0.541 l 0.01,-0.045 -0.031,-0.09 c -0.036,-0.075 -0.11,-0.189 -0.258,-0.346 l -0.035,-0.035 -7.153,-4.127 c -1.046,-0.604 -1.322,-1.992 -0.587,-2.95 l 1.301,-1.696 c 0.379,-0.494 0.967,-0.784 1.59,-0.782 l 13.936,0.025 c 1.104,10e-4 1.998,0.899 1.996,2.003 -0.001,1.104 -0.899,1.998 -2.003,1.996 l -10.695,-0.018 3.831,2.209 c 0.128,0.074 0.248,0.162 0.356,0.262 1.072,0.988 1.816,2.234 1.749,3.728 -0.064,1.418 -0.85,2.556 -1.681,3.398 -0.126,0.128 -0.269,0.238 -0.424,0.328 l -4.347,2.508 11.217,0.012 c 1.104,0.001 1.999,0.898 1.997,2.002 -0.001,1.104 -0.898,1.999 -2.002,1.997 z"
       stroke-width="0.5"
       stroke="none"
       fill="#000000"
       fill-rule="evenodd"
       marker-start="none"
       marker-end="none"
       fill-opacity="0.490196"
       id="path11"
       style="fill:#666666" />
    <path
       d="m 431.86305,-469.82792 0.001,-8.772 c 0,-0.668 0.334,-1.293 0.89,-1.664 l 2.551,-1.701 c 0.792,-0.528 1.849,-0.424 2.523,0.249 l 7.382,7.371 7.675,-7.396 c 0.628,-0.606 1.578,-0.733 2.345,-0.315 l 2.819,1.537 c 0.643,0.35 1.043,1.024 1.043,1.755 v 8.92 c 0,1.104 -0.897,2 -2,2 -1.104,0 -2,-0.896 -2,-2 v -7.732 l -0.488,-0.266 -8.031,7.739 c -0.784,0.755 -2.03,0.744 -2.801,-0.025 l -7.612,-7.599 -0.297,0.198 -10e-4,7.702 c 0,1.104 -0.896,2 -2,1.999 -1.104,0 -2,-0.896 -1.999,-2 z"
       stroke-width="0.5"
       stroke="none"
       fill="#000000"
       fill-rule="evenodd"
       marker-start="none"
       marker-end="none"
       fill-opacity="0.509804"
       id="path12"
       style="fill:#666666" />
  </g>
</svg>
